<svg width="185" height="184" viewBox="0 0 185 184" fill="none" xmlns="http://www.w3.org/2000/svg">
<path d="M21.0867 74.4314C17.157 84.1931 15.5681 94.7395 16.4474 105.226C17.3267 115.712 20.6497 125.846 26.1502 134.817C31.6506 143.788 39.1757 151.346 48.1225 156.886C57.0693 162.425 67.1892 165.793 77.6714 166.718L78.0272 162.687C68.1745 161.817 58.6623 158.652 50.2528 153.445C41.8433 148.238 34.7702 141.134 29.6 132.702C24.4299 124.27 21.3065 114.744 20.48 104.887C19.6535 95.0311 21.1469 85.1181 24.8406 75.9427L21.0867 74.4314Z" fill="black"/>
<path d="M75.6666 88L94.3333 100L75.6666 112V88Z" fill="black" stroke="black" stroke-width="2" stroke-linecap="round" stroke-linejoin="round"/>
<path d="M25.8754 71.1091C25.4579 70.8722 25.1072 70.5583 24.8231 70.1672C24.5457 69.7645 24.3599 69.3219 24.2658 68.8393C24.1667 68.3385 24.1617 67.8068 24.251 67.2442C24.3468 66.67 24.5624 66.0872 24.898 65.4958C25.2072 64.9507 25.5738 64.5072 25.9978 64.1652C26.4283 63.8116 26.8923 63.5613 27.3896 63.4142C27.8869 63.2671 28.3995 63.2283 28.9273 63.2978C29.4434 63.3607 29.9509 63.5336 30.4495 63.8165L29.3146 65.817C28.8275 65.5407 28.3626 65.4685 27.9198 65.6005C27.477 65.7326 27.1075 66.0595 26.8115 66.5814C26.5154 67.1032 26.4127 67.5815 26.5034 68.0162C26.594 68.4508 26.7901 68.7537 27.0916 68.9248C27.4163 69.109 27.7446 69.1113 28.0765 68.9316C28.4083 68.752 28.7623 68.4929 29.1383 68.1544C29.5143 67.8158 29.9159 67.4458 30.343 67.0442C30.7766 66.6311 31.2395 66.2882 31.7314 66.0154C32.2234 65.7427 32.7571 65.5855 33.3325 65.5441C33.8963 65.496 34.5087 65.6595 35.1698 66.0345C35.5641 66.2582 35.8908 66.5739 36.1501 66.9816C36.4159 67.3777 36.6009 67.8352 36.7051 68.3542C36.7976 68.8666 36.7952 69.4247 36.6979 70.0287C36.5955 70.6144 36.3732 71.2088 36.0311 71.8119C35.6824 72.4265 35.2829 72.928 34.8326 73.3164C34.3889 73.6932 33.9151 73.961 33.4112 74.1196C32.8957 74.2717 32.3707 74.3188 31.8364 74.2609C31.297 74.1849 30.7664 73.9988 30.2445 73.7028L31.4288 71.6153C31.9159 71.8916 32.4081 71.9563 32.9054 71.8092C33.3912 71.6555 33.7952 71.2946 34.1176 70.7263C34.4663 70.1117 34.5986 69.5812 34.5145 69.1349C34.4189 68.6821 34.1971 68.357 33.8492 68.1596C33.5129 67.9688 33.173 67.9599 32.8295 68.133C32.4861 68.3061 32.1263 68.5619 31.7503 68.9004C31.3627 69.2324 30.9579 69.6082 30.5358 70.0279C30.1203 70.4361 29.6723 70.7798 29.192 71.0591C28.7116 71.3384 28.2011 71.5087 27.6605 71.5699C27.1083 71.6246 26.5132 71.4709 25.8754 71.1091Z" fill="black"/>
<path d="M47.629 53.937L49.2317 55.5867L42.8481 61.7883L34.0683 52.7509L40.3084 46.6887L41.9111 48.3383L37.3924 52.7283L39.2738 54.6648L43.4339 50.6233L45.0365 52.273L40.8764 56.3145L42.9669 58.4663L47.629 53.937Z" fill="black"/>
<path d="M61.8543 45.2302L62.9309 47.2627L55.0662 51.4288L49.1682 40.2944L56.8562 36.222L57.9328 38.2544L52.3656 41.2034L53.6295 43.5894L58.7548 40.8744L59.8314 42.9069L54.7061 45.6218L56.1104 48.2729L61.8543 45.2302Z" fill="black"/>
<path d="M89.5467 30.2554L89.6501 42.855L87.2502 42.8747L87.2067 37.5748L81.9069 37.6184L81.9504 42.9182L79.5505 42.9379L79.447 30.3383L81.8469 30.3186L81.888 35.3184L87.1878 35.2749L87.1468 30.2751L89.5467 30.2554Z" fill="black"/>
<path d="M101.161 38.5209C100.972 39.0904 100.893 39.6472 100.923 40.191C100.958 40.7222 101.075 41.2174 101.274 41.6766C101.477 42.1232 101.756 42.5106 102.111 42.8389C102.478 43.1713 102.903 43.4172 103.384 43.5765C103.852 43.7317 104.333 43.7856 104.826 43.7384C105.319 43.6911 105.78 43.549 106.21 43.3121C106.644 43.0626 107.033 42.7351 107.378 42.3297C107.728 41.9116 107.997 41.4178 108.185 40.8483C108.374 40.2787 108.451 39.7283 108.416 39.1971C108.386 38.6533 108.269 38.1581 108.066 37.7115C107.867 37.2523 107.584 36.8565 107.216 36.524C106.849 36.1916 106.431 35.9478 105.963 35.7926C105.482 35.6333 104.994 35.5773 104.501 35.6245C104.021 35.676 103.563 35.8265 103.13 36.076C102.7 36.3129 102.311 36.6404 101.961 37.0585C101.616 37.4639 101.349 37.9513 101.161 38.5209ZM110.463 41.6031C110.178 42.4638 109.756 43.2087 109.196 43.838C108.649 44.4714 108.018 44.9785 107.302 45.3593C106.602 45.7316 105.846 45.9585 105.032 46.0401C104.236 46.1132 103.445 46.0198 102.66 45.7598C101.875 45.4998 101.179 45.1005 100.571 44.5619C99.9796 44.0149 99.5083 43.3811 99.1571 42.6608C98.8226 41.932 98.6188 41.1481 98.5456 40.3092C98.4851 39.4744 98.5974 38.6267 98.8826 37.7661C99.1635 36.9181 99.5775 36.1773 100.124 35.5439C100.688 34.902 101.32 34.3949 102.019 34.0226C102.735 33.6418 103.492 33.4149 104.288 33.3417C105.102 33.2602 105.901 33.3494 106.686 33.6094C107.471 33.8694 108.159 34.2729 108.75 34.8199C109.358 35.3585 109.829 35.9923 110.164 36.7211C110.515 37.4414 110.719 38.2253 110.775 39.0727C110.848 39.9116 110.744 40.7551 110.463 41.6031Z" fill="black"/>
<path d="M118.789 53.877L117.471 52.8033L122.327 40.508L124.188 42.0237L120.948 49.9603L128.142 45.2447L129.228 46.1289L126.065 54.1286L133.182 49.3499L135.043 50.8656L123.984 58.1084L122.666 57.0348L125.717 49.3308L118.789 53.877Z" fill="black"/>
<path d="M137.138 77.1224L136.146 74.937L147.62 69.7298L148.611 71.9153L137.138 77.1224Z" fill="black"/>
<path d="M151.965 80.8536L153.869 90.467L151.612 90.9137L150.894 87.2842L140.79 89.2845L140.324 86.9302L150.428 84.9299L149.709 81.3003L151.965 80.8536Z" fill="black"/>
<path d="M139.689 114.515L140.222 112.901L153.44 113.054L152.688 115.333L144.118 115.135L151.089 120.176L150.65 121.505L142.048 121.402L149.05 126.348L148.298 128.627L137.588 120.877L138.121 119.263L146.406 119.366L139.689 114.515Z" fill="black"/>
<path d="M136.448 135.865C135.983 135.487 135.49 135.215 134.971 135.051C134.462 134.895 133.958 134.828 133.458 134.851C132.968 134.883 132.507 135.006 132.074 135.222C131.633 135.447 131.253 135.757 130.933 136.15C130.622 136.533 130.401 136.963 130.27 137.441C130.139 137.919 130.108 138.401 130.177 138.886C130.257 139.38 130.425 139.861 130.681 140.327C130.948 140.802 131.315 141.229 131.78 141.607C132.246 141.985 132.733 142.253 133.242 142.409C133.761 142.573 134.266 142.64 134.755 142.608C135.255 142.585 135.726 142.46 136.167 142.235C136.608 142.009 136.984 141.705 137.296 141.322C137.615 140.929 137.84 140.494 137.971 140.016C138.094 139.548 138.115 139.067 138.036 138.573C137.967 138.087 137.799 137.607 137.532 137.132C137.275 136.666 136.914 136.243 136.448 135.865ZM130.266 143.469C129.563 142.897 129.016 142.238 128.626 141.492C128.228 140.756 127.978 139.985 127.876 139.181C127.776 138.395 127.832 137.607 128.045 136.817C128.259 136.047 128.627 135.34 129.148 134.699C129.67 134.057 130.29 133.548 131.009 133.17C131.731 132.812 132.49 132.596 133.288 132.523C134.088 132.469 134.894 132.556 135.704 132.786C136.506 133.025 137.259 133.431 137.962 134.003C138.655 134.566 139.201 135.216 139.599 135.952C139.999 136.707 140.249 137.477 140.35 138.263C140.451 139.068 140.395 139.856 140.181 140.626C139.969 141.416 139.602 142.132 139.08 142.773C138.559 143.415 137.938 143.915 137.216 144.273C136.497 144.651 135.737 144.867 134.937 144.921C134.139 144.994 133.334 144.906 132.522 144.658C131.711 144.429 130.96 144.033 130.266 143.469Z" fill="black"/>
<path d="M118.539 150.556L120.055 149.586L117.577 145.71L119.599 144.418L126.387 155.033L122.175 157.726C121.669 158.05 121.146 158.258 120.604 158.351C120.058 158.463 119.531 158.467 119.023 158.365C118.514 158.263 118.041 158.067 117.602 157.778C117.171 157.5 116.816 157.141 116.535 156.703C116.155 156.108 115.957 155.538 115.941 154.994C115.926 154.45 115.985 153.961 116.119 153.528C116.269 153.02 116.502 152.555 116.817 152.132L111.596 149.535L113.87 148.081L118.539 150.556ZM121.295 151.524L119.104 152.924C118.677 153.197 118.408 153.568 118.295 154.035C118.19 154.514 118.259 154.944 118.504 155.326C118.748 155.708 119.106 155.946 119.577 156.04C120.056 156.145 120.509 156.062 120.936 155.789L123.126 154.388L121.295 151.524Z" fill="black"/>
<path d="M98.0205 154.441L103.905 158.697L102.35 153.214L104.659 152.559L108.096 164.681L105.787 165.336L104.259 159.948L101.746 166.481L99.052 167.245L101.883 159.998L95.3267 155.205L98.0205 154.441Z" fill="black"/>
<path d="M89.4188 164.959C89.4152 165.439 89.3117 165.899 89.1084 166.337C88.8917 166.776 88.5955 167.153 88.2198 167.47C87.8306 167.801 87.3686 168.064 86.8338 168.26C86.2856 168.456 85.6716 168.551 84.9916 168.546C84.3649 168.541 83.799 168.437 83.2939 168.233C82.7754 168.029 82.3309 167.746 81.9603 167.383C81.5897 167.02 81.3062 166.592 81.11 166.097C80.9136 165.615 80.8176 165.088 80.8219 164.515L83.1218 164.532C83.1176 165.092 83.2809 165.533 83.6119 165.856C83.9428 166.178 84.4082 166.342 85.0082 166.346C85.6082 166.351 86.0759 166.208 86.4115 165.917C86.747 165.626 86.9161 165.307 86.9187 164.961C86.9215 164.587 86.7637 164.299 86.4452 164.097C86.1267 163.895 85.7281 163.712 85.2493 163.548C84.7706 163.384 84.2518 163.214 83.6931 163.036C83.1211 162.859 82.5963 162.621 82.1185 162.324C81.6407 162.027 81.2436 161.638 80.9273 161.155C80.6108 160.686 80.4554 160.072 80.4612 159.312C80.4646 158.858 80.5813 158.419 80.8111 157.994C81.0277 157.569 81.3373 157.185 81.7399 156.841C82.1424 156.511 82.6311 156.241 83.206 156.032C83.7675 155.837 84.3949 155.741 85.0882 155.747C85.7949 155.752 86.4274 155.857 86.9859 156.061C87.5311 156.265 87.9956 156.548 88.3795 156.911C88.7634 157.288 89.0601 157.723 89.2697 158.218C89.4659 158.726 89.5617 159.28 89.5571 159.88L87.1572 159.862C87.1614 159.302 86.9783 158.841 86.6077 158.478C86.237 158.129 85.7249 157.951 85.0716 157.946C84.365 157.941 83.8372 158.084 83.4883 158.374C83.1394 158.679 82.9634 159.031 82.9604 159.431C82.9574 159.817 83.1152 160.118 83.4335 160.334C83.7519 160.55 84.1505 160.74 84.6293 160.903C85.108 161.08 85.6334 161.251 86.2055 161.415C86.7642 161.579 87.2826 161.803 87.7604 162.087C88.2383 162.37 88.6356 162.733 88.9522 163.176C89.2688 163.632 89.4243 164.226 89.4188 164.959Z" fill="black"/>
</svg>
