<svg width="190" height="56" viewBox="0 0 190 56" fill="none" xmlns="http://www.w3.org/2000/svg">
<path d="M20.96 22.104C20.96 21.528 21.08 20.976 21.32 20.448C21.576 19.92 21.928 19.464 22.376 19.08C22.84 18.68 23.392 18.36 24.032 18.12C24.688 17.88 25.424 17.76 26.24 17.76C26.992 17.76 27.672 17.88 28.28 18.12C28.904 18.36 29.44 18.696 29.888 19.128C30.336 19.56 30.68 20.072 30.92 20.664C31.16 21.24 31.28 21.872 31.28 22.56H28.52C28.52 21.888 28.32 21.36 27.92 20.976C27.52 20.592 26.96 20.4 26.24 20.4C25.52 20.4 24.96 20.576 24.56 20.928C24.16 21.28 23.96 21.664 23.96 22.08C23.96 22.528 24.152 22.872 24.536 23.112C24.92 23.352 25.4 23.568 25.976 23.76C26.552 23.952 27.176 24.152 27.848 24.36C28.536 24.568 29.168 24.848 29.744 25.2C30.32 25.552 30.8 26.016 31.184 26.592C31.568 27.152 31.76 27.888 31.76 28.8C31.76 29.344 31.624 29.872 31.352 30.384C31.096 30.896 30.728 31.36 30.248 31.776C29.768 32.176 29.184 32.504 28.496 32.76C27.824 33 27.072 33.12 26.24 33.12C25.392 33.12 24.632 33 23.96 32.76C23.304 32.52 22.744 32.184 22.28 31.752C21.816 31.304 21.456 30.784 21.2 30.192C20.96 29.584 20.84 28.92 20.84 28.2H23.72C23.72 28.872 23.944 29.424 24.392 29.856C24.84 30.272 25.456 30.48 26.24 30.48C27.088 30.48 27.72 30.304 28.136 29.952C28.552 29.584 28.76 29.16 28.76 28.68C28.76 28.216 28.568 27.856 28.184 27.6C27.8 27.344 27.32 27.12 26.744 26.928C26.168 26.72 25.536 26.52 24.848 26.328C24.176 26.136 23.552 25.872 22.976 25.536C22.4 25.2 21.92 24.768 21.536 24.24C21.152 23.696 20.96 22.984 20.96 22.104ZM39.6688 21.84C40.2608 21.84 40.8128 21.952 41.3248 22.176C41.8528 22.384 42.3008 22.696 42.6688 23.112C43.0368 23.512 43.3248 24 43.5328 24.576C43.7568 25.152 43.8688 25.8 43.8688 26.52V33H41.1088V26.88C41.1088 26.16 40.8928 25.584 40.4608 25.152C40.0448 24.704 39.5008 24.48 38.8288 24.48C38.1568 24.48 37.6048 24.704 37.1728 25.152C36.7568 25.584 36.5488 26.16 36.5488 26.88V33H33.7888V17.88H36.5488V23.04C36.7568 22.816 37.0048 22.616 37.2928 22.44C37.5488 22.296 37.8688 22.16 38.2528 22.032C38.6528 21.904 39.1248 21.84 39.6688 21.84ZM48.5581 27.48C48.5581 28.392 48.8221 29.12 49.3501 29.664C49.8781 30.208 50.5341 30.48 51.3181 30.48C52.1021 30.48 52.7581 30.208 53.2861 29.664C53.8141 29.12 54.0781 28.392 54.0781 27.48C54.0781 26.568 53.8141 25.84 53.2861 25.296C52.7581 24.752 52.1021 24.48 51.3181 24.48C50.5341 24.48 49.8781 24.752 49.3501 25.296C48.8221 25.84 48.5581 26.568 48.5581 27.48ZM56.8381 27.48C56.8381 28.264 56.6861 29 56.3821 29.688C56.0941 30.36 55.6941 30.952 55.1821 31.464C54.6861 31.976 54.1021 32.384 53.4301 32.688C52.7741 32.976 52.0701 33.12 51.3181 33.12C50.5661 33.12 49.8541 32.976 49.1821 32.688C48.5261 32.384 47.9421 31.976 47.4301 31.464C46.9341 30.952 46.5341 30.36 46.2301 29.688C45.9421 29 45.7981 28.264 45.7981 27.48C45.7981 26.696 45.9421 25.968 46.2301 25.296C46.5341 24.608 46.9341 24.008 47.4301 23.496C47.9421 22.984 48.5261 22.584 49.1821 22.296C49.8541 21.992 50.5661 21.84 51.3181 21.84C52.0701 21.84 52.7741 21.992 53.4301 22.296C54.1021 22.584 54.6861 22.984 55.1821 23.496C55.6941 24.008 56.0941 24.608 56.3821 25.296C56.6861 25.968 56.8381 26.696 56.8381 27.48ZM64.5069 21.84C65.1949 21.84 65.8509 21.984 66.4749 22.272C67.0989 22.544 67.6429 22.936 68.1069 23.448C68.5869 23.944 68.9629 24.536 69.2349 25.224C69.5229 25.912 69.6669 26.664 69.6669 27.48C69.6669 28.296 69.5229 29.048 69.2349 29.736C68.9629 30.424 68.5869 31.024 68.1069 31.536C67.6429 32.032 67.0989 32.424 66.4749 32.712C65.8509 32.984 65.1949 33.12 64.5069 33.12C64.0429 33.12 63.6349 33.064 63.2829 32.952C62.9469 32.84 62.6509 32.72 62.3949 32.592C62.1069 32.432 61.8509 32.248 61.6269 32.04V36.84H58.8669V21.96H60.9069L61.3869 23.04C61.6269 22.816 61.9069 22.616 62.2269 22.44C62.4989 22.296 62.8269 22.16 63.2109 22.032C63.5949 21.904 64.0269 21.84 64.5069 21.84ZM61.3869 27.48C61.3869 28.392 61.6509 29.12 62.1789 29.664C62.7069 30.208 63.3629 30.48 64.1469 30.48C64.9309 30.48 65.5869 30.208 66.1149 29.664C66.6429 29.12 66.9069 28.392 66.9069 27.48C66.9069 26.568 66.6429 25.84 66.1149 25.296C65.5869 24.752 64.9309 24.48 64.1469 24.48C63.3629 24.48 62.7069 24.752 62.1789 25.296C61.6509 25.84 61.3869 26.568 61.3869 27.48ZM89.4613 17.88V33H86.9413L80.2213 23.16V33H77.3413V17.88H79.8613L86.5813 27.72V17.88H89.4613ZM94.4956 27.48C94.4956 28.392 94.7596 29.12 95.2876 29.664C95.8156 30.208 96.4716 30.48 97.2556 30.48C98.0396 30.48 98.6956 30.208 99.2236 29.664C99.7516 29.12 100.016 28.392 100.016 27.48C100.016 26.568 99.7516 25.84 99.2236 25.296C98.6956 24.752 98.0396 24.48 97.2556 24.48C96.4716 24.48 95.8156 24.752 95.2876 25.296C94.7596 25.84 94.4956 26.568 94.4956 27.48ZM102.776 27.48C102.776 28.264 102.624 29 102.32 29.688C102.032 30.36 101.632 30.952 101.12 31.464C100.624 31.976 100.04 32.384 99.3676 32.688C98.7116 32.976 98.0076 33.12 97.2556 33.12C96.5036 33.12 95.7916 32.976 95.1196 32.688C94.4636 32.384 93.8796 31.976 93.3676 31.464C92.8716 30.952 92.4716 30.36 92.1676 29.688C91.8796 29 91.7356 28.264 91.7356 27.48C91.7356 26.696 91.8796 25.968 92.1676 25.296C92.4716 24.608 92.8716 24.008 93.3676 23.496C93.8796 22.984 94.4636 22.584 95.1196 22.296C95.7916 21.992 96.5036 21.84 97.2556 21.84C98.0076 21.84 98.7116 21.992 99.3676 22.296C100.04 22.584 100.624 22.984 101.12 23.496C101.632 24.008 102.032 24.608 102.32 25.296C102.624 25.968 102.776 26.696 102.776 27.48ZM111.644 26.4L109.604 33H107.204L103.604 21.96H106.364L108.524 29.04L110.804 21.96H112.484L114.764 29.04L116.924 21.96H119.684L116.084 33H113.684L111.644 26.4Z" fill="#8E5125"/>
<line x1="137" y1="27" x2="167" y2="27" stroke="#8E5125" stroke-width="2" stroke-linecap="round"/>
<line x1="168.142" y1="26.5563" x2="161.071" y2="19.4853" stroke="#8E5125" stroke-width="2" stroke-linecap="round"/>
<line x1="161.071" y1="34.0711" x2="168.142" y2="27" stroke="#8E5125" stroke-width="2" stroke-linecap="round"/>
<rect x="1" y="1" width="188" height="54" rx="3" stroke="#8E5125" stroke-width="2"/>
</svg>
