<svg width="113" height="17" viewBox="0 0 113 17" fill="none" xmlns="http://www.w3.org/2000/svg">
<path d="M9.8 7.96C10.248 8.168 10.648 8.44 11 8.776C11.304 9.064 11.576 9.432 11.816 9.88C12.072 10.328 12.2 10.888 12.2 11.56C12.2 12.168 12.08 12.744 11.84 13.288C11.6 13.816 11.256 14.28 10.808 14.68C10.376 15.08 9.856 15.4 9.248 15.64C8.656 15.88 8 16 7.28 16H0.44V0.879999H6.92C7.608 0.879999 8.24 0.991999 8.816 1.216C9.392 1.44 9.88 1.744 10.28 2.128C10.696 2.512 11.016 2.96 11.24 3.472C11.48 3.968 11.6 4.504 11.6 5.08C11.6 5.592 11.504 6.032 11.312 6.4C11.12 6.768 10.912 7.064 10.688 7.288C10.416 7.56 10.12 7.784 9.8 7.96ZM3.92 6.88H6.56C7.04 6.88 7.44 6.728 7.76 6.424C8.08 6.104 8.24 5.736 8.24 5.32C8.24 4.904 8.08 4.544 7.76 4.24C7.44 3.92 7.04 3.76 6.56 3.76H3.92V6.88ZM6.92 13.12C7.464 13.12 7.92 12.944 8.288 12.592C8.656 12.224 8.84 11.8 8.84 11.32C8.84 10.84 8.656 10.424 8.288 10.072C7.92 9.704 7.464 9.52 6.92 9.52H3.92V13.12H6.92ZM18.4419 16.12C17.7859 16.12 17.1859 16.016 16.6419 15.808C16.0979 15.584 15.6259 15.272 15.2259 14.872C14.8419 14.456 14.5379 13.96 14.3139 13.384C14.1059 12.808 14.0019 12.16 14.0019 11.44V4.96H17.2419V10.84C17.2419 11.56 17.4259 12.12 17.7939 12.52C18.1779 12.92 18.6739 13.12 19.2819 13.12C19.8899 13.12 20.3779 12.92 20.7459 12.52C21.1299 12.12 21.3219 11.56 21.3219 10.84V4.96H24.5619V16H22.1619L21.6819 14.92C21.4099 15.144 21.1059 15.344 20.7699 15.52C20.4819 15.68 20.1379 15.824 19.7379 15.952C19.3539 16.064 18.9219 16.12 18.4419 16.12ZM33.0856 4.84C33.7416 4.84 34.3416 4.952 34.8856 5.176C35.4296 5.384 35.8936 5.696 36.2776 6.112C36.6776 6.512 36.9816 7 37.1896 7.576C37.4136 8.152 37.5256 8.8 37.5256 9.52V16H34.2856V10.12C34.2856 9.4 34.0936 8.84 33.7096 8.44C33.3416 8.04 32.8536 7.84 32.2456 7.84C31.6376 7.84 31.1416 8.04 30.7576 8.44C30.3896 8.84 30.2056 9.4 30.2056 10.12V16H26.9656V4.96H29.3656L29.8456 6.04C30.1016 5.816 30.3976 5.616 30.7336 5.44C31.0216 5.296 31.3656 5.16 31.7656 5.032C32.1656 4.904 32.6056 4.84 33.0856 4.84ZM42.4494 12.4C42.5134 12.768 42.6654 13.064 42.9054 13.288C43.1454 13.496 43.4734 13.6 43.8894 13.6C44.3054 13.6 44.6254 13.504 44.8494 13.312C45.0894 13.104 45.2094 12.88 45.2094 12.64C45.2094 12.448 45.0654 12.296 44.7774 12.184C44.5054 12.056 44.1614 11.936 43.7454 11.824C43.3294 11.696 42.8734 11.552 42.3774 11.392C41.8974 11.232 41.4494 11.024 41.0334 10.768C40.6174 10.496 40.2654 10.144 39.9774 9.712C39.7054 9.28 39.5694 8.736 39.5694 8.08C39.5694 7.632 39.6654 7.208 39.8574 6.808C40.0494 6.392 40.3214 6.032 40.6734 5.728C41.0414 5.424 41.4814 5.184 41.9934 5.008C42.5214 4.816 43.1134 4.72 43.7694 4.72C45.2094 4.72 46.3054 5.04 47.0574 5.68C47.8094 6.32 48.2734 7.12 48.4494 8.08L45.3294 8.32C45.2654 8.08 45.1214 7.864 44.8974 7.672C44.6734 7.464 44.3774 7.36 44.0094 7.36C43.6414 7.36 43.3694 7.44 43.1934 7.6C43.0174 7.76 42.9294 7.96 42.9294 8.2C42.9294 8.408 43.0654 8.568 43.3374 8.68C43.6254 8.792 43.9774 8.912 44.3934 9.04C44.8094 9.152 45.2574 9.288 45.7374 9.448C46.2334 9.608 46.6894 9.824 47.1054 10.096C47.5214 10.352 47.8654 10.696 48.1374 11.128C48.4254 11.56 48.5694 12.104 48.5694 12.76C48.5694 13.208 48.4654 13.64 48.2574 14.056C48.0654 14.472 47.7774 14.848 47.3934 15.184C47.0094 15.504 46.5374 15.76 45.9774 15.952C45.4334 16.144 44.8174 16.24 44.1294 16.24C42.6254 16.24 41.4894 15.912 40.7214 15.256C39.9694 14.6 39.5054 13.728 39.3294 12.64L42.4494 12.4ZM60.6992 2.55859H56.1406V16H54.2188V2.55859H49.6602V0.882812H60.6992V2.55859ZM67.6602 5.07812C68.2383 5.07812 68.7773 5.19531 69.2773 5.42969C69.7852 5.66406 70.2305 5.98438 70.6133 6.39062C70.9961 6.79688 71.3008 7.28906 71.5273 7.86719C71.7539 8.4375 71.8672 9.07031 71.8672 9.76562V16H70.0625V9.76562C70.0625 9.32031 69.9883 8.91406 69.8398 8.54688C69.6992 8.17188 69.5078 7.85156 69.2656 7.58594C69.0312 7.32031 68.7539 7.11719 68.4336 6.97656C68.1133 6.83594 67.7773 6.76562 67.4258 6.76562C66.5742 6.76562 65.8789 7.03906 65.3398 7.58594C64.8086 8.125 64.543 8.85156 64.543 9.76562V16H62.7383V0.882812H64.543V6.51953C64.7695 6.24609 65.0352 6.00781 65.3398 5.80469C65.6133 5.625 65.9375 5.46094 66.3125 5.3125C66.6953 5.15625 67.1445 5.07812 67.6602 5.07812ZM80.0117 6.88281H79.5312C78.6797 6.88281 77.9883 7.15625 77.457 7.70312C76.9258 8.24219 76.6602 8.96875 76.6602 9.88281V16H74.8555V5.19531H76.1797L76.6602 6.40234C76.8867 6.16016 77.1484 5.94531 77.4453 5.75781C77.7188 5.57812 78.0469 5.42188 78.4297 5.28906C78.8125 5.14844 79.2617 5.07812 79.7773 5.07812H80.0117V6.88281ZM83.8555 16H82.0508V5.19531H83.8555V16ZM81.8164 2.14844C81.8164 1.8125 81.9219 1.53906 82.1328 1.32812C82.3516 1.10937 82.6211 1 82.9414 1C83.2773 1 83.5508 1.10937 83.7617 1.32812C83.9805 1.53906 84.0898 1.8125 84.0898 2.14844C84.0898 2.46875 83.9805 2.73828 83.7617 2.95703C83.5508 3.17578 83.2773 3.28516 82.9414 3.28516C82.6211 3.28516 82.3516 3.17578 82.1328 2.95703C81.9219 2.73828 81.8164 2.46875 81.8164 2.14844ZM93.9336 2.32422H95.4922V5.19531H97.8945V6.88281H95.4922V12.5195C95.4922 13.1289 95.6562 13.6016 95.9844 13.9375C96.3125 14.2734 96.75 14.4414 97.2969 14.4414C97.4531 14.4414 97.5977 14.4258 97.7305 14.3945C97.793 14.3789 97.8477 14.3555 97.8945 14.3242V15.8828C97.8164 15.9297 97.7266 15.9688 97.625 16C97.4141 16.0781 97.1445 16.1172 96.8164 16.1172C96.4023 16.1172 96.0039 16.0312 95.6211 15.8594C95.2461 15.6797 94.9141 15.4336 94.625 15.1211C94.3438 14.8086 94.1172 14.4336 93.9453 13.9961C93.7812 13.5586 93.6992 13.0664 93.6992 12.5195V6.88281H89.1289V16H87.3359V6.88281H86.0117V5.19531H87.3359V4.36328C87.3359 3.81641 87.418 3.32422 87.582 2.88672C87.7539 2.44141 87.9844 2.06641 88.2734 1.76172C88.5625 1.44922 88.8945 1.20703 89.2695 1.03516C89.6445 0.855469 90.0391 0.765625 90.4531 0.765625C90.6328 0.765625 90.7891 0.777344 90.9219 0.800781C91.0547 0.824219 91.1719 0.851562 91.2734 0.882812C91.3672 0.929688 91.4531 0.96875 91.5312 1V2.55859C91.4844 2.54297 91.4297 2.52734 91.3672 2.51172C91.3203 2.49609 91.2539 2.48047 91.168 2.46484C91.0898 2.44922 91.0117 2.44141 90.9336 2.44141C90.3867 2.44141 89.9492 2.60937 89.6211 2.94531C89.293 3.28125 89.1289 3.75391 89.1289 4.36328V5.19531H92.6094C93.4922 5.19531 93.9336 4.75781 93.9336 3.88281V2.32422ZM107.387 12.8828C107.387 13.3281 107.297 13.7461 107.117 14.1367C106.945 14.5273 106.699 14.8711 106.379 15.168C106.059 15.4648 105.672 15.6992 105.219 15.8711C104.766 16.0352 104.25 16.1172 103.672 16.1172C102.469 16.1172 101.523 15.7969 100.836 15.1562C100.148 14.5156 99.7734 13.7188 99.7109 12.7656H101.516C101.578 13.2422 101.785 13.6406 102.137 13.9609C102.488 14.2812 103 14.4414 103.672 14.4414C104.281 14.4414 104.754 14.2852 105.09 13.9727C105.426 13.6602 105.594 13.2969 105.594 12.8828C105.594 12.4844 105.453 12.1836 105.172 11.9805C104.891 11.7773 104.543 11.6172 104.129 11.5C103.715 11.3828 103.262 11.2734 102.77 11.1719C102.285 11.0625 101.832 10.9062 101.41 10.7031C100.996 10.4922 100.648 10.1953 100.367 9.8125C100.086 9.42188 99.9453 8.88281 99.9453 8.19531C99.9453 7.78125 100.031 7.38672 100.203 7.01172C100.383 6.63672 100.629 6.30469 100.941 6.01562C101.254 5.72656 101.629 5.5 102.066 5.33594C102.512 5.16406 103.008 5.07812 103.555 5.07812C104.703 5.07812 105.594 5.37891 106.227 5.98047C106.859 6.58203 107.207 7.36328 107.27 8.32422H105.465C105.402 7.84766 105.219 7.46875 104.914 7.1875C104.609 6.90625 104.156 6.76562 103.555 6.76562C103.008 6.76562 102.57 6.91406 102.242 7.21094C101.914 7.5 101.75 7.82812 101.75 8.19531C101.75 8.59375 101.891 8.89453 102.172 9.09766C102.453 9.30078 102.801 9.46484 103.215 9.58984C103.629 9.70703 104.078 9.81641 104.562 9.91797C105.055 10.0195 105.508 10.1758 105.922 10.3867C106.344 10.5898 106.691 10.8906 106.965 11.2891C107.246 11.6797 107.387 12.2109 107.387 12.8828ZM108.939 14.32C108.939 13.84 109.115 13.424 109.467 13.072C109.835 12.704 110.259 12.52 110.739 12.52C111.219 12.52 111.635 12.704 111.987 13.072C112.355 13.424 112.539 13.84 112.539 14.32C112.539 14.8 112.355 15.224 111.987 15.592C111.635 15.944 111.219 16.12 110.739 16.12C110.259 16.12 109.835 15.944 109.467 15.592C109.115 15.224 108.939 14.8 108.939 14.32Z" fill="black"/>
</svg>
